<svg width="24" height="25" viewBox="0 0 24 25" fill="none" xmlns="http://www.w3.org/2000/svg">
<path d="M8 20.5003L18.5 10.0003C18.7626 9.73766 18.971 9.42585 19.1131 9.08269C19.2553 8.73953 19.3284 8.37174 19.3284 8.0003C19.3284 7.62887 19.2553 7.26107 19.1131 6.91791C18.971 6.57475 18.7626 6.26295 18.5 6.0003C18.2374 5.73766 17.9256 5.52932 17.5824 5.38718C17.2392 5.24503 16.8714 5.17187 16.5 5.17188C16.1286 5.17188 15.7608 5.24503 15.4176 5.38718C15.0744 5.52932 14.7626 5.73766 14.5 6.0003L4 16.5003V20.5003H8Z" stroke="#A1A1A1" stroke-width="1.5" stroke-linecap="round"/>
<path d="M13.5 7L17.5 11" stroke="#A1A1A1" stroke-width="1.5" stroke-linecap="round" stroke-linejoin="round"/>
<path d="M12 20.5L20 20.5" stroke="#A1A1A1" stroke-width="1.5" stroke-linecap="square" stroke-linejoin="round"/>
</svg>
