<svg width="30" height="30" viewBox="0 0 30 30" fill="none" xmlns="http://www.w3.org/2000/svg">
<path d="M22.3327 23.25V21.4167C22.3327 20.4442 21.9464 19.5116 21.2587 18.8239C20.5711 18.1363 19.6385 17.75 18.666 17.75H11.3327C10.3602 17.75 9.42759 18.1363 8.73996 18.8239C8.05232 19.5116 7.66602 20.4442 7.66602 21.4167V23.25" stroke="#1E1E1E" stroke-width="1.5" stroke-linecap="round" stroke-linejoin="round"/>
<path d="M15.0007 14.0833C17.0257 14.0833 18.6673 12.4417 18.6673 10.4167C18.6673 8.39162 17.0257 6.75 15.0007 6.75C12.9756 6.75 11.334 8.39162 11.334 10.4167C11.334 12.4417 12.9756 14.0833 15.0007 14.0833Z" stroke="#1E1E1E" stroke-width="1.5" stroke-linecap="round" stroke-linejoin="round"/>
<rect x="0.75" y="0.75" width="28.5" height="28.5" rx="14.25" stroke="#1E1E1E" stroke-width="1.5"/>
</svg>
