<svg width="103" height="14" viewBox="0 0 103 14" fill="none" xmlns="http://www.w3.org/2000/svg">
<g clip-path="url(#clip0_794_2003)">
<path d="M9.24375 6.10732V0.234375H11.2524V13.7207H9.24375V7.92696H2.00863V13.7207H0V0.234375H2.00863V6.10732H9.24375Z" fill="#1E1E1E"/>
<path d="M16.868 13.7207H14.8594V0.234375H16.868V13.7207Z" fill="#1E1E1E"/>
<path d="M42.6849 13.9566C38.8051 13.9566 35.8418 10.8258 35.8418 7.00767C35.8418 3.18949 38.8255 0 42.6467 0C44.4797 0 46.1166 0.723257 47.2877 1.86053L45.8849 3.15115C45.0474 2.36911 43.8967 1.86053 42.6492 1.86053C39.938 1.86053 37.853 4.22965 37.853 7.00767C37.853 9.78569 39.938 12.096 42.6696 12.096C44.9303 12.096 46.8421 10.5882 46.8421 8.61263H42.9827V6.89011H49.0468C49.0468 11.6846 46.4934 13.9566 42.69 13.9566H42.6849Z" fill="#1E1E1E"/>
<path d="M57.2923 13.9566C53.4711 13.9566 50.5078 10.8258 50.5078 7.00767C50.5078 3.18949 53.4711 0 57.2923 0C61.1136 0 64.1176 3.1716 64.1176 7.00767C64.1176 10.8437 61.1339 13.9566 57.2923 13.9566ZM57.2923 12.0781C60.0418 12.0781 62.109 9.7678 62.109 7.00767C62.109 4.24754 60.0418 1.87842 57.2923 1.87842C54.5429 1.87842 52.5164 4.22709 52.5164 7.00767C52.5164 9.78824 54.5633 12.0781 57.2923 12.0781Z" fill="#1E1E1E"/>
<path d="M72.3744 13.9995C68.5531 13.9995 65.5898 10.8688 65.5898 7.05064C65.5898 3.23245 68.5531 0.0429688 72.3744 0.0429688C76.1956 0.0429688 79.1996 3.21456 79.1996 7.05064C79.1996 10.8867 76.216 13.9995 72.3744 13.9995ZM72.3744 12.1211C75.1238 12.1211 77.191 9.81077 77.191 7.05064C77.191 4.2905 75.1238 1.92139 72.3744 1.92139C69.6249 1.92139 67.5985 4.27006 67.5985 7.05064C67.5985 9.83121 69.6453 12.1211 72.3744 12.1211Z" fill="#1E1E1E"/>
<path d="M81.0879 0.279297H86.3144C90.156 0.279297 92.3963 3.21577 92.3963 7.05184C92.3963 10.8879 90.1534 13.7656 86.3144 13.7656H81.0879V0.279297ZM83.0965 11.9255H86.3144C89.0053 11.9255 90.3902 9.79153 90.3902 7.05184C90.3902 4.31216 89.0053 2.11938 86.3144 2.11938H83.0965V11.9255Z" fill="#1E1E1E"/>
<path d="M98.4556 14.0009C95.589 14.0009 93.6797 12.0637 93.6797 9.89134H95.6679C95.7061 11.0465 96.7779 12.1633 98.4556 12.1633C100.133 12.1633 100.991 11.1462 100.991 10.0294C100.991 8.83585 99.9194 8.26849 98.8273 7.97459L97.1114 7.54268C94.2448 6.81942 93.7764 5.11478 93.7764 4.00051C93.7764 1.63139 95.864 0.046875 98.2417 0.046875C100.619 0.046875 102.552 1.57261 102.552 4.03884H100.563C100.563 2.76612 99.5681 1.88696 98.1857 1.88696C96.9179 1.88696 95.7876 2.72778 95.7876 3.96217C95.7876 4.39153 95.9251 5.27323 97.6206 5.72303L99.3161 6.19328C101.577 6.79897 103.002 7.95414 103.002 9.93223C103.002 12.1838 101.169 14.0034 98.4581 14.0034L98.4556 14.0009Z" fill="#1E1E1E"/>
<path d="M33.2225 0.520736V0.515625H20.2441V2.43238L29.9996 2.38127L20.1016 12.2539L21.5399 13.7004L31.3692 3.76134L31.3158 13.5496H33.2251V0.520736H33.2225Z" fill="#FA4E18"/>
</g>
<defs>
<clipPath id="clip0_794_2003">
<rect width="103" height="14" fill="white"/>
</clipPath>
</defs>
</svg>
